<svg xmlns="http://www.w3.org/2000/svg" viewBox="0 0 690.53 256.36" role="img" aria-labelledby="title desc">
  <title id="title">Jaaang ㅈㅇㅇ wordmark</title>
  <desc id="desc">A bold ㅈㅇㅇ based Jaaang wordmark with an angular reinforced ㅈ.</desc>
  <path fill="#101114" d="M153.37,62.07h75.11V13.93H16.64V62.07h75.1c-3.34,65.05-11.38,128.11-81.52,138L23.06,245c45.65-7.28,77.57-21.2,99.5-60.67,21.94,39.48,53.83,53.38,99.5,60.67l12.84-44.94C164.74,190.15,156.73,127.16,153.37,62.07Z"/>
  <path fill="#101114" d="M227.81,254.05l-7-1.12c-41.43-6.61-74.39-18.58-98.24-53.35-23.86,34.77-56.82,46.74-98.24,53.35l-7,1.12L0,193.46l9.1-1.29c60.59-8.56,70.48-59.75,74.19-122.1H8.64V5.93H236.48V70.07H161.83c3.72,62.34,13.61,113.51,74.19,122.1l9.1,1.29ZM20.34,206.41,28.78,236c38.59-7,66.8-19.51,86.79-55.47l7-12.58,7,12.58c20,36,48.19,48.51,86.79,55.47l8.44-29.54c-29.87-6.51-50.53-23.39-63-51.39C149.65,127.79,147,93,145.38,62.48L145,54.07h75.53V21.93H24.64V54.07h75.53l-.44,8.41C98.17,93,95.48,127.75,83.34,155,70.86,183,50.2,199.91,20.34,206.41Z"/>
  <path fill="#101114" d="M456.82,70.7q-5.7-24.27-19.23-39.93T402.05,7.62Q380,.13,347.12.12q-32.6,0-54.77,7.5T256.66,30.77Q243.13,46.42,237.42,70.7t-5.7,57.87q0,32,5.21,55.91t18.42,39.93q13.22,16,35.54,24t56.23,8q33.9,0,56.24-8t35.53-24q13.2-16,18.42-39.93t5.22-55.91Q462.53,95,456.82,70.7Zm-78.08,98q0,13.37-7,17.11t-23.31,3.75h-32.6V87.82q0-13.36,7.17-17.12T345.82,67h32.92Z"/>
  <path fill="#101114" d="M684.82,70.58q-5.7-24.28-19.23-39.94T630.05,7.5Q608,0,575.12,0q-32.6,0-54.77,7.5T484.66,30.64Q471.13,46.3,465.42,70.58t-5.7,57.86q0,32,5.21,55.91t18.42,39.94q13.22,16,35.54,24t56.23,8q33.9,0,56.24-8t35.53-24q13.2-16,18.42-39.94t5.22-55.91Q690.53,94.87,684.82,70.58Zm-78.08,98q0,13.38-7,17.12t-23.31,3.75h-32.6V87.69q0-13.36,7.17-17.11t22.82-3.75h32.92Z"/>
</svg>
